# xmcd CD database file
# Generated: Wed Jul 10 04:04:51 2002 by KSCD
# 
# Track frame offsets:
#       150
#       2220
#       6045
#       19730
#       28372
#       41297
#       49746
#       62611
#       70868
#       83917
#       92298
#       105280
#       113740
#       126748
#       134906
#       147843
#       156448
#       169303
#       177623
#       190529
#       199027
#       211805
#       220155
#       233103
#
# Disc length: 3210 seconds
#
# Revision: 1
# Processed by: cddbd v1.4PL0 Copyright (c) Steve Scherf et al.
# Submitted via: Kscd 1.3.3
#
DISCID=510c8818
DTITLE=Steve Kaufman - 4 Hour Banjo Bluegrass Workout CD3
DYEAR=1900
DGENRE=
TTITLE0=Intro
TTITLE1=Tuning Notes
TTITLE2=Hell Amongst the Yearlings (S)
TTITLE3=Hell Amongst the Yearlings (F)
TTITLE4=June Apple (S)
TTITLE5=June Apple (F)
TTITLE6=Katie Hill (S)
TTITLE7=Katie Hill (F)
TTITLE8=Kitchen Girl (S)
TTITLE9=Kitchen Girl (F)
TTITLE10=Liberty (S)
TTITLE11=Liberty (F)
TTITLE12=Lost Indian (S)
TTITLE13=Lost Indian (F)
TTITLE14=Miller's Reel (S)
TTITLE15=Miller's Reel (F)
TTITLE16=Mississippi Sawyer (S)
TTITLE17=Mississippi Sawyer (F)
TTITLE18=Old Joe Clark (S)
TTITLE19=Old Joe Clark (F)
TTITLE20=Over The Waterfall (S)
TTITLE21=Over The Waterfall (F)
TTITLE22=Ragtime Annie (S)
TTITLE23=Ragtime Annie (F)
EXTD=
EXTT0=
EXTT1=
EXTT2=
EXTT3=
EXTT4=
EXTT5=
EXTT6=
EXTT7=
EXTT8=
EXTT9=
EXTT10=
EXTT11=
EXTT12=
EXTT13=
EXTT14=
EXTT15=
EXTT16=
EXTT17=
EXTT18=
EXTT19=
EXTT20=
EXTT21=
EXTT22=
EXTT23=
PLAYORDER=
